HIERARCHY
ROOT Hips
{
 OFFSET 0.000000 0.000000 0.000000
 CHANNELS 6 Xposition Yposition Zposition Yrotation Xrotation Zrotation
 JOINT Chest
 {
  OFFSET 0.000000 10.383400 0.001500
  CHANNELS 3 Yrotation Xrotation Zrotation
  JOINT Chest2
  {
   OFFSET 0.000000 10.418200 -0.003100
   CHANNELS 3 Yrotation Xrotation Zrotation
   JOINT Chest3
   {
    OFFSET 0.000000 10.375100 0.000000
    CHANNELS 3 Yrotation Xrotation Zrotation
    JOINT Chest4
    {
     OFFSET 0.000000 10.364600 0.000000
     CHANNELS 3 Yrotation Xrotation Zrotation
     JOINT Neck
     {
      OFFSET 0.000000 15.642200 0.000000
      CHANNELS 3 Yrotation Xrotation Zrotation
      JOINT Head
      {
       OFFSET 0.000000 9.697300 -0.006500
       CHANNELS 3 Yrotation Xrotation Zrotation
       End Site
       {
        OFFSET 0.000000 18.492200 -0.003400
       }
      }
     }
     JOINT RightCollar
     {
      OFFSET -3.166800 10.349300 0.000000
      CHANNELS 3 Yrotation Xrotation Zrotation
      JOINT RightShoulder
      {
       OFFSET -14.729700 0.000000 0.000000
       CHANNELS 3 Yrotation Xrotation Zrotation
       JOINT RightElbow
       {
        OFFSET 0.000000 -32.224300 0.000000
        CHANNELS 3 Yrotation Xrotation Zrotation
        JOINT RightWrist
        {
         OFFSET 0.000000 -26.084100 0.000000
         CHANNELS 3 Yrotation Xrotation Zrotation
         End Site
         {
          OFFSET 0.000000 -19.319400 0.000000
         }
        }
       }
      }
     }
     JOINT LeftCollar
     {
      OFFSET 3.166800 10.349300 0.000000
      CHANNELS 3 Yrotation Xrotation Zrotation
      JOINT LeftShoulder
      {
       OFFSET 14.729700 0.000000 0.000000
       CHANNELS 3 Yrotation Xrotation Zrotation
       JOINT LeftElbow
       {
        OFFSET 0.000000 -32.224300 0.000000
        CHANNELS 3 Yrotation Xrotation Zrotation
        JOINT LeftWrist
        {
         OFFSET 0.000000 -26.084100 0.000000
         CHANNELS 3 Yrotation Xrotation Zrotation
         End Site
         {
          OFFSET 0.000000 -19.319400 0.000000
         }
        }
       }
      }
     }
    }
   }
  }
 }
 JOINT RightHip
 {
  OFFSET -8.428900 -0.007500 -0.000800
  CHANNELS 3 Yrotation Xrotation Zrotation
  JOINT RightKnee
  {
   OFFSET 0.000000 -43.834600 0.000700
   CHANNELS 3 Yrotation Xrotation Zrotation
   JOINT RightAnkle
   {
    OFFSET 0.000000 -42.757000 0.001200
    CHANNELS 3 Yrotation Xrotation Zrotation
    JOINT RightToe
    {
     OFFSET 0.000000 -6.946900 15.649300
     CHANNELS 3 Yrotation Xrotation Zrotation
     End Site
     {
      OFFSET 0.000000 -1.580800 6.825800
     }
    }
   }
  }
 }
 JOINT LeftHip
 {
  OFFSET 8.428900 -0.007500 -0.000800
  CHANNELS 3 Yrotation Xrotation Zrotation
  JOINT LeftKnee
  {
   OFFSET 0.000000 -43.834600 0.000700
   CHANNELS 3 Yrotation Xrotation Zrotation
   JOINT LeftAnkle
   {
    OFFSET 0.000000 -42.757000 0.001200
    CHANNELS 3 Yrotation Xrotation Zrotation
    JOINT LeftToe
    {
     OFFSET 0.000000 -6.946900 15.649300
     CHANNELS 3 Yrotation Xrotation Zrotation
     End Site
     {
      OFFSET 0.000000 -1.580800 6.825800
     }
    }
   }
  }
 }
}
MOTION
Frames: 9
Frame Time: 0.008333
0.000000 93.354300 0.000000 0.000000 -5.767877 0.000000 0.000000 11.653817 0.000000 0.000000 -5.885947 0.000000 0.000000 -0.000000 0.000000 0.000000 -0.000000 0.000000 0.000000 12.528835 0.000000 0.000000 0.711642 0.000000 0.000000 -0.000000 0.000000 0.000000 0.000000 -90.000000 0.000000 -2.309062 0.000000 0.000000 2.309062 0.000000 0.000000 -0.000000 0.000000 0.000000 -0.000000 90.000000 0.000000 -2.309062 0.000000 0.000000 2.309062 0.000000 0.000000 8.520406 0.000000 0.000000 1.905762 0.000000 -0.000000 -4.658285 0.000000 0.000000 -0.000000 0.000000 0.000000 8.520406 0.000000 0.000000 1.905762 0.000000 -0.000000 -4.658285 0.000000 0.000000 -0.000000 0.000000
124.858620 127.027447 29.440248 -13.157656 -30.094780 -1.947304 -2.298501 16.124712 1.894370 -0.249130 1.616957 0.216861 -0.419156 2.704134 0.361740 -2.056091 14.254748 1.713659 2.311295 14.572263 -1.334537 4.835652 -8.637925 -3.376628 -1.041028 -5.314162 -2.938496 11.429806 -14.522178 -10.587344 28.932855 -41.359742 -0.812779 6.439453 9.574326 -18.545654 -3.220045 -7.345659 -3.851781 -0.179613 -4.598761 5.725226 -28.359636 -49.400678 4.970170 -23.188722 7.875686 16.595150 -4.555099 -38.911546 0.387841 -28.332820 76.795903 -27.356309 2.778081 -6.523850 3.440380 -0.001946 -0.007853 -0.000864 -5.967637 -31.899396 -7.286171 -3.517244 73.356171 -0.177180 -13.076315 -9.423322 -2.836870 -0.001131 0.000416 -0.000502
124.858502 127.027278 29.439729 -13.157691 -30.092361 -1.948016 -2.299967 16.123495 1.897095 -0.253106 1.615529 0.217486 -0.418899 2.702276 0.361167 -2.059347 14.256816 1.713811 2.315765 14.572082 -1.338947 4.830321 -8.635739 -3.380443 -1.032208 -5.314677 -2.941014 11.424702 -14.521894 -10.589594 28.935433 -41.360622 -0.811633 6.435915 9.569612 -18.548748 -3.213269 -7.343638 -3.858593 -0.179642 -4.600972 5.725890 -28.371961 -49.396994 4.983529 -23.183074 7.871307 16.599302 -4.560700 -38.914266 0.388432 -28.308887 76.796337 -27.332810 2.787985 -6.524398 3.438224 -0.000982 -0.009637 -0.000436 -5.969040 -31.899984 -7.289476 -3.506669 73.358461 -0.169494 -13.043206 -9.427986 -2.839155 -0.000219 0.000680 -0.000097
124.858332 127.027154 29.439203 -13.155892 -30.090228 -1.949575 -2.302506 16.122055 1.900862 -0.252829 1.616180 0.215124 -0.422990 2.703223 0.365790 -2.061458 14.254662 1.710049 2.312738 14.573887 -1.341620 4.834718 -8.636410 -3.384735 -1.024253 -5.312771 -2.945158 11.418525 -14.524807 -10.584146 28.932147 -41.356374 -0.808549 6.438741 9.554111 -18.548504 -3.210866 -7.343352 -3.861803 -0.176348 -4.601174 5.725353 -28.388858 -49.393217 4.995381 -23.171589 7.871377 16.607451 -4.562427 -38.916416 0.387805 -28.278494 76.796943 -27.297189 2.783081 -6.521218 3.433348 0.000331 -0.010250 0.000147 -5.969732 -31.899226 -7.287006 -3.517500 73.357278 -0.182935 -13.032109 -9.430323 -2.837218 0.000839 0.002181 0.000372
124.859296 127.027037 29.438926 -13.151093 -30.088238 -1.946070 -2.309276 16.119751 1.896435 -0.252825 1.617197 0.216980 -0.423690 2.701954 0.363695 -2.062317 14.254926 1.709025 2.308460 14.574183 -1.340813 4.838013 -8.635185 -3.389046 -1.024779 -5.311547 -2.947411 11.416176 -14.527758 -10.577413 28.932625 -41.352215 -0.809059 6.441460 9.545839 -18.550301 -3.214144 -7.342777 -3.861022 -0.170026 -4.600581 5.721956 -28.405444 -49.391448 5.010011 -23.168012 7.859130 16.611333 -4.559453 -38.917787 0.375150 -28.244515 76.800452 -27.253279 2.776254 -6.522229 3.424665 0.003304 -0.008900 0.001467 -5.971440 -31.899698 -7.295792 -3.508071 73.356155 -0.177088 -13.015551 -9.431720 -2.836568 0.001871 0.001894 0.000831
124.859204 127.027291 29.438920 -13.150098 -30.090253 -1.946139 -2.311769 16.120821 1.897351 -0.254507 1.616036 0.218580 -0.422489 2.702880 0.361618 -2.066552 14.252931 1.707499 2.300527 14.570711 -1.341628 4.843312 -8.635455 -3.398029 -1.021790 -5.312234 -2.947524 11.411585 -14.527774 -10.571804 28.933187 -41.349974 -0.806693 6.448300 9.545906 -18.549284 -3.213422 -7.338836 -3.859426 -0.166637 -4.601223 5.716065 -28.408491 -49.391564 5.016370 -23.164640 7.854619 16.609595 -4.557254 -38.914347 0.370991 -28.224864 76.800348 -27.230574 2.779097 -6.519034 3.423862 0.003672 -0.006659 0.001630 -5.973727 -31.897171 -7.292002 -3.510360 73.356599 -0.182203 -13.032587 -9.430992 -2.836188 0.000316 0.001682 0.000140
124.859428 127.027385 29.438672 -13.148860 -30.090791 -1.945398 -2.318932 16.120748 1.895151 -0.260279 1.612040 0.217224 -0.417827 2.706313 0.363096 -2.070201 14.251808 1.708108 2.299808 14.568997 -1.346605 4.849570 -8.635439 -3.401162 -1.010539 -5.312304 -2.950561 11.406732 -14.525602 -10.570910 28.934304 -41.347389 -0.807650 6.444187 9.536407 -18.556174 -3.208091 -7.335844 -3.860785 -0.159735 -4.599036 5.714509 -28.408437 -49.395014 5.015222 -23.160240 7.852363 16.609845 -4.557939 -38.915582 0.367700 -28.210784 76.802975 -27.217464 2.778197 -6.514085 3.427675 0.002813 -0.006857 0.001248 -5.983131 -31.895986 -7.288206 -3.511834 73.354584 -0.191360 -13.037421 -9.430403 -2.836855 -0.000528 0.001518 -0.000234
124.859871 127.027453 29.438434 -13.146048 -30.091342 -1.944918 -2.330635 16.114691 1.887846 -0.254764 1.616859 0.219125 -0.425001 2.702445 0.361347 -2.083022 14.249077 1.703603 2.316043 14.573586 -1.346137 4.854709 -8.637501 -3.401022 -0.987433 -5.304045 -2.949486 11.403731 -14.521865 -10.570453 28.922052 -41.345766 -0.809922 6.461838 9.523078 -18.545942 -3.191378 -7.325874 -3.857861 -0.161960 -4.602017 5.707169 -28.408027 -49.387594 5.015190 -23.152154 7.852709 16.620216 -4.560091 -38.917389 0.362632 -28.187765 76.807267 -27.196014 2.775216 -6.509161 3.429066 0.000729 -0.008003 0.000324 -5.986022 -31.894044 -7.291523 -3.532506 73.352302 -0.206997 -13.038142 -9.430752 -2.842614 0.000199 0.001178 0.000088
124.859655 127.027672 29.438299 -13.147498 -30.093701 -1.946401 -2.330140 16.115962 1.888969 -0.256340 1.615536 0.218402 -0.425262 2.702158 0.361158 -2.082073 14.250132 1.703861 2.316771 14.573506 -1.345947 4.856649 -8.643251 -3.399227 -0.987306 -5.304365 -2.950107 11.406095 -14.516741 -10.569709 28.912102 -41.345035 -0.816956 6.473647 9.507395 -18.534156 -3.192712 -7.323520 -3.856430 -0.160603 -4.603089 5.705811 -28.392998 -49.389472 5.003699 -23.158943 7.854970 16.622744 -4.562821 -38.916085 0.362618 -28.169558 76.809339 -27.176974 2.773852 -6.504514 3.427572 0.000065 -0.008449 0.000029 -5.990413 -31.890090 -7.289187 -3.537893 73.352535 -0.211570 -13.036786 -9.433310 -2.845806 0.000227 0.001060 0.000101
